<mxfile host="app.diagrams.net" modified="2023-08-26T01:05:23.184Z" agent="Mozilla/5.0 (Windows NT 10.0; Win64; x64) AppleWebKit/537.36 (KHTML, like Gecko) Chrome/116.0.0.0 Safari/537.36" etag="VS85Drb36OZgDsa2_KkG" version="21.6.9" type="github">
  <diagram name="第 1 页" id="ebJeQNQ8_hLXaA4WbQeJ">
    <mxGraphModel dx="840" dy="459" grid="1" gridSize="10" guides="1" tooltips="1" connect="1" arrows="1" fold="1" page="1" pageScale="1" pageWidth="827" pageHeight="1169" math="0" shadow="0">
      <root>
        <mxCell id="0" />
        <mxCell id="1" parent="0" />
        <mxCell id="UzrP6KG8abcAM1gcjsgf-1" value="&lt;div style=&quot;&quot;&gt;&lt;span style=&quot;background-color: initial; font-family: &amp;quot;Comic Sans MS&amp;quot;;&quot;&gt;StandardContext&lt;/span&gt;&lt;/div&gt;" style="rounded=0;whiteSpace=wrap;html=1;align=center;" parent="1" vertex="1">
          <mxGeometry x="20" y="200" width="120" height="30" as="geometry" />
        </mxCell>
        <mxCell id="UzrP6KG8abcAM1gcjsgf-11" style="edgeStyle=orthogonalEdgeStyle;rounded=0;orthogonalLoop=1;jettySize=auto;html=1;exitX=1;exitY=0.5;exitDx=0;exitDy=0;" parent="1" source="UzrP6KG8abcAM1gcjsgf-5" target="UzrP6KG8abcAM1gcjsgf-9" edge="1">
          <mxGeometry relative="1" as="geometry" />
        </mxCell>
        <mxCell id="UzrP6KG8abcAM1gcjsgf-5" value="start()" style="rounded=0;whiteSpace=wrap;html=1;fontFamily=Comic Sans MS;" parent="1" vertex="1">
          <mxGeometry x="20" y="230" width="120" height="20" as="geometry" />
        </mxCell>
        <mxCell id="UzrP6KG8abcAM1gcjsgf-6" value="BEFORE_START_EVENT" style="html=1;fontFamily=Comic Sans MS;rounded=0;labelBackgroundColor=default;fillStyle=auto;fillColor=#dae8fc;strokeColor=#6c8ebf;" parent="1" vertex="1">
          <mxGeometry x="200" y="40" width="150" height="30" as="geometry" />
        </mxCell>
        <mxCell id="UzrP6KG8abcAM1gcjsgf-9" value="" style="shape=curlyBracket;whiteSpace=wrap;html=1;rounded=1;flipH=1;labelPosition=right;verticalLabelPosition=middle;align=left;verticalAlign=middle;direction=west;size=0.5;" parent="1" vertex="1">
          <mxGeometry x="170" y="20" width="20" height="440" as="geometry" />
        </mxCell>
        <mxCell id="UzrP6KG8abcAM1gcjsgf-12" value="SET RESOURCES" style="html=1;fontFamily=Comic Sans MS;rounded=0;labelBackgroundColor=default;fillStyle=auto;fillColor=#dae8fc;strokeColor=#6c8ebf;" parent="1" vertex="1">
          <mxGeometry x="200" y="80" width="150" height="30" as="geometry" />
        </mxCell>
        <mxCell id="UzrP6KG8abcAM1gcjsgf-13" value="SET LOADER, MANAGER" style="html=1;fontFamily=Comic Sans MS;rounded=0;labelBackgroundColor=default;fillStyle=auto;fillColor=#dae8fc;strokeColor=#6c8ebf;" parent="1" vertex="1">
          <mxGeometry x="200" y="120" width="150" height="30" as="geometry" />
        </mxCell>
        <mxCell id="UzrP6KG8abcAM1gcjsgf-16" value="" style="edgeStyle=orthogonalEdgeStyle;rounded=0;orthogonalLoop=1;jettySize=auto;html=1;entryX=0;entryY=0.5;entryDx=0;entryDy=0;" parent="1" source="UzrP6KG8abcAM1gcjsgf-14" target="UzrP6KG8abcAM1gcjsgf-17" edge="1">
          <mxGeometry relative="1" as="geometry">
            <mxPoint x="430" y="175" as="targetPoint" />
          </mxGeometry>
        </mxCell>
        <mxCell id="UzrP6KG8abcAM1gcjsgf-14" value="addDefaultMapper()" style="html=1;fontFamily=Comic Sans MS;rounded=0;labelBackgroundColor=default;fillStyle=auto;fillColor=#dae8fc;strokeColor=#6c8ebf;" parent="1" vertex="1">
          <mxGeometry x="200" y="160" width="150" height="30" as="geometry" />
        </mxCell>
        <mxCell id="UzrP6KG8abcAM1gcjsgf-17" value="org.apache.catalina.core.StandardContextMapper" style="text;html=1;strokeColor=none;fillColor=none;align=center;verticalAlign=middle;whiteSpace=wrap;rounded=0;" parent="1" vertex="1">
          <mxGeometry x="380" y="160" width="270" height="30" as="geometry" />
        </mxCell>
        <mxCell id="UzrP6KG8abcAM1gcjsgf-18" value="component.start()" style="html=1;fontFamily=Comic Sans MS;rounded=0;labelBackgroundColor=default;fillStyle=auto;fillColor=#dae8fc;strokeColor=#6c8ebf;align=center;labelPosition=center;verticalLabelPosition=middle;verticalAlign=top;" parent="1" vertex="1">
          <mxGeometry x="200" y="200" width="150" height="140" as="geometry" />
        </mxCell>
        <mxCell id="UzrP6KG8abcAM1gcjsgf-32" value="loader, logger&lt;br&gt;cluster, realm, resources&lt;br&gt;mapper&lt;br&gt;sub container&lt;br&gt;pipeline&lt;br&gt;&lt;br&gt;&lt;br&gt;manager" style="text;html=1;strokeColor=none;fillColor=none;align=left;verticalAlign=middle;whiteSpace=wrap;rounded=0;" parent="1" vertex="1">
          <mxGeometry x="200" y="220" width="150" height="120" as="geometry" />
        </mxCell>
        <mxCell id="UzrP6KG8abcAM1gcjsgf-34" value="" style="edgeStyle=orthogonalEdgeStyle;rounded=0;orthogonalLoop=1;jettySize=auto;html=1;" parent="1" source="UzrP6KG8abcAM1gcjsgf-26" target="UzrP6KG8abcAM1gcjsgf-33" edge="1">
          <mxGeometry relative="1" as="geometry" />
        </mxCell>
        <mxCell id="UzrP6KG8abcAM1gcjsgf-26" value="START_EVENT" style="html=1;fontFamily=Comic Sans MS;rounded=0;labelBackgroundColor=default;fillStyle=auto;fillColor=#dae8fc;strokeColor=#6c8ebf;" parent="1" vertex="1">
          <mxGeometry x="207" y="294" width="130" height="30" as="geometry" />
        </mxCell>
        <mxCell id="UzrP6KG8abcAM1gcjsgf-33" value="ContextConfig" style="whiteSpace=wrap;html=1;fontFamily=Comic Sans MS;fillColor=#dae8fc;strokeColor=#6c8ebf;rounded=0;labelBackgroundColor=default;fillStyle=auto;" parent="1" vertex="1">
          <mxGeometry x="380" y="295" width="88" height="29" as="geometry" />
        </mxCell>
        <mxCell id="UzrP6KG8abcAM1gcjsgf-35" value="&lt;font style=&quot;font-size: 11px;&quot;&gt;config the context&lt;/font&gt;" style="text;html=1;strokeColor=none;fillColor=none;align=center;verticalAlign=middle;whiteSpace=wrap;rounded=0;fontSize=7;" parent="1" vertex="1">
          <mxGeometry x="371" y="270" width="106" height="30" as="geometry" />
        </mxCell>
        <mxCell id="UzrP6KG8abcAM1gcjsgf-36" value="postWelcomFiles()" style="html=1;fontFamily=Comic Sans MS;rounded=0;labelBackgroundColor=default;fillStyle=auto;fillColor=#dae8fc;strokeColor=#6c8ebf;" parent="1" vertex="1">
          <mxGeometry x="200" y="350" width="150" height="30" as="geometry" />
        </mxCell>
        <mxCell id="UzrP6KG8abcAM1gcjsgf-37" value="loadOnStartup(findChildren())" style="html=1;fontFamily=Comic Sans MS;rounded=0;labelBackgroundColor=default;fillStyle=auto;fillColor=#dae8fc;strokeColor=#6c8ebf;" parent="1" vertex="1">
          <mxGeometry x="190" y="390" width="170" height="30" as="geometry" />
        </mxCell>
        <mxCell id="UzrP6KG8abcAM1gcjsgf-38" value="AFTER_START_EVENT" style="html=1;fontFamily=Comic Sans MS;rounded=0;labelBackgroundColor=default;fillStyle=auto;fillColor=#dae8fc;strokeColor=#6c8ebf;" parent="1" vertex="1">
          <mxGeometry x="197" y="430" width="153" height="30" as="geometry" />
        </mxCell>
        <mxCell id="VR2nock7peao10aemkDQ-3" value="invoke()" style="text;html=1;strokeColor=none;fillColor=none;align=center;verticalAlign=middle;whiteSpace=wrap;rounded=0;" vertex="1" parent="1">
          <mxGeometry x="30.000000000000004" y="640" width="60" height="15" as="geometry" />
        </mxCell>
        <mxCell id="VR2nock7peao10aemkDQ-9" value="" style="group" vertex="1" connectable="0" parent="1">
          <mxGeometry x="104" y="600" width="310" height="110" as="geometry" />
        </mxCell>
        <mxCell id="VR2nock7peao10aemkDQ-1" value="&lt;font face=&quot;Tahoma&quot;&gt;StandardContextValve&lt;/font&gt;" style="rounded=0;whiteSpace=wrap;html=1;verticalAlign=top;" vertex="1" parent="VR2nock7peao10aemkDQ-9">
          <mxGeometry width="310" height="110" as="geometry" />
        </mxCell>
        <mxCell id="VR2nock7peao10aemkDQ-4" value="&lt;font face=&quot;Tahoma&quot;&gt;wrapper = (Wrapper) context.map(request, true)&lt;/font&gt;" style="rounded=0;whiteSpace=wrap;html=1;" vertex="1" parent="VR2nock7peao10aemkDQ-9">
          <mxGeometry x="9.980000000000004" y="30" width="290" height="25" as="geometry" />
        </mxCell>
        <mxCell id="VR2nock7peao10aemkDQ-7" value="wrapper.invoke(request, response)" style="rounded=0;whiteSpace=wrap;html=1;" vertex="1" parent="VR2nock7peao10aemkDQ-9">
          <mxGeometry x="9.980000000000004" y="70" width="290" height="20" as="geometry" />
        </mxCell>
        <mxCell id="VR2nock7peao10aemkDQ-10" value="" style="endArrow=classic;html=1;rounded=0;entryX=0;entryY=0.5;entryDx=0;entryDy=0;" edge="1" parent="1" target="VR2nock7peao10aemkDQ-1">
          <mxGeometry width="50" height="50" relative="1" as="geometry">
            <mxPoint x="20" y="655" as="sourcePoint" />
            <mxPoint x="70" y="670" as="targetPoint" />
          </mxGeometry>
        </mxCell>
        <mxCell id="VR2nock7peao10aemkDQ-14" value="&lt;font style=&quot;border-color: var(--border-color); font-weight: 400;&quot; color=&quot;#ff3333&quot;&gt;mapper&lt;/font&gt;.map(request, update)" style="swimlane;whiteSpace=wrap;html=1;" vertex="1" parent="1">
          <mxGeometry x="445" y="585" width="225" height="185" as="geometry">
            <mxRectangle x="445" y="585" width="140" height="30" as="alternateBounds" />
          </mxGeometry>
        </mxCell>
        <mxCell id="VR2nock7peao10aemkDQ-24" style="edgeStyle=orthogonalEdgeStyle;rounded=0;orthogonalLoop=1;jettySize=auto;html=1;exitX=0.5;exitY=1;exitDx=0;exitDy=0;entryX=0.47;entryY=-0.005;entryDx=0;entryDy=0;entryPerimeter=0;" edge="1" parent="VR2nock7peao10aemkDQ-14" source="VR2nock7peao10aemkDQ-17" target="VR2nock7peao10aemkDQ-20">
          <mxGeometry relative="1" as="geometry" />
        </mxCell>
        <mxCell id="VR2nock7peao10aemkDQ-17" value="get&amp;nbsp;&lt;font style=&quot;border-color: var(--border-color);&quot; color=&quot;#ff3333&quot;&gt;uri&lt;/font&gt;&amp;nbsp;from request" style="text;html=1;strokeColor=none;fillColor=none;align=center;verticalAlign=middle;whiteSpace=wrap;rounded=0;" vertex="1" parent="VR2nock7peao10aemkDQ-14">
          <mxGeometry x="35" y="25" width="150" height="20" as="geometry" />
        </mxCell>
        <mxCell id="VR2nock7peao10aemkDQ-21" value="" style="group" vertex="1" connectable="0" parent="VR2nock7peao10aemkDQ-14">
          <mxGeometry x="10" y="65" width="205" height="115" as="geometry" />
        </mxCell>
        <mxCell id="VR2nock7peao10aemkDQ-19" value="1. exact match&lt;br style=&quot;border-color: var(--border-color); font-size: 11px;&quot;&gt;&lt;span style=&quot;font-size: 11px;&quot;&gt;2. prefix match(longest prefix match)&lt;br&gt;3. Extension match (&quot;*.abc&quot;)&lt;br&gt;4. Default match (&quot;/&quot;)&lt;br&gt;&lt;/span&gt;" style="rounded=0;whiteSpace=wrap;html=1;align=left;" vertex="1" parent="VR2nock7peao10aemkDQ-21">
          <mxGeometry y="20" width="205" height="95" as="geometry" />
        </mxCell>
        <mxCell id="VR2nock7peao10aemkDQ-20" value="MATCH RULE" style="text;html=1;strokeColor=none;fillColor=none;align=center;verticalAlign=middle;whiteSpace=wrap;rounded=0;" vertex="1" parent="VR2nock7peao10aemkDQ-21">
          <mxGeometry x="55" width="95" height="30" as="geometry" />
        </mxCell>
        <mxCell id="VR2nock7peao10aemkDQ-15" style="edgeStyle=orthogonalEdgeStyle;rounded=0;orthogonalLoop=1;jettySize=auto;html=1;exitX=1;exitY=0.5;exitDx=0;exitDy=0;entryX=0;entryY=0.075;entryDx=0;entryDy=0;entryPerimeter=0;" edge="1" parent="1" source="VR2nock7peao10aemkDQ-4" target="VR2nock7peao10aemkDQ-14">
          <mxGeometry relative="1" as="geometry" />
        </mxCell>
      </root>
    </mxGraphModel>
  </diagram>
</mxfile>
